<svg version="1.2" xmlns="http://www.w3.org/2000/svg" viewBox="0 0 184 121" width="736" height="484">
	<style>
		.s0 { fill: #324b9f } 
	</style>
	<g id="Capa 1">
		<path id="&lt;Compound Path&gt;" fill-rule="evenodd" class="s0" d="m163.37 62.23c0.82 3.95 1.2 7.99 1.07 12.02q-0.08 2.37-0.39 4.72c-1.94 14.83-14.34 23.98-31.89 24.86-11.81 0.59-22.76-2.48-32.96-8.15-3.17-1.76-5.24-1.53-8.12 0.53-8.79 6.31-18.51 10.51-29.44 11.48-20.75 1.84-45.82-17.1-37.25-46.94 2.44-8.46 6.57-16.45 10.14-24.55 1.52-3.45 4.57-4.71 8.05-3.11 3.79 1.75 4.21 4.95 2.68 8.59-3.12 7.43-6.81 14.68-9.2 22.33-6.25 19.95 11.16 34.83 28.56 30.89 6.77-1.54 13.12-4.95 20.36-7.78-4.03-4.73-7.67-8.03-10.06-12.07-2.48-4.19-4.52-8.96-5.36-13.72-1.08-6.06 2.14-10.77 8.1-12.7 3.07-1 6.45-0.71 9.58-0.12 1.47 0.27 2.84 0.56 4.26 1.07 1.36 0.49 2.74 1.02 4.19 1.1 1.3 0.07 2.59-0.22 3.87-0.43 4.29-0.69 9.36-0.81 13.29 1.31 5.68 3.06 7.39 8.82 4.06 15.55-3.11 6.29-7.35 12.02-11.36 18.43 10.04 5.31 20.75 7.66 32.12 5.14 11.05-2.45 15.47-8.72 14.58-19.92-0.89-11.05-5.51-20.8-10.73-30.34-0.69-1.27-1.62-2.46-2.1-3.81-0.53-1.45-0.77-3.13-0.25-4.62 0.53-1.55 1.82-2.46 3.37-2.84 0.93-0.22 1.88-0.41 2.85-0.41 1.14 0.01 2.32 0.31 3.19 1.06 0.74 0.65 1.19 1.55 1.66 2.42 1.43 2.62 3 5.15 4.41 7.78 1.91 3.54 3.69 7.15 5.2 10.88 1.49 3.67 2.71 7.46 3.52 11.35zm-62.12 14.53c2.56-1.99 4.87-4.22 6.5-7.08 1.36-2.4 2.05-4.93 1.39-7.7-0.99-4.2-5.58-6.7-9.64-5.21-1.64 0.6-2.95 1.59-3.7 3.24-0.2 0.45-0.51 0.85-0.77 1.28q-0.08-0.01-0.17-0.02-0.36-0.97-0.74-1.92c-1.05-2.56-2.88-4.27-5.61-4.85-3.36-0.71-6.76 1.49-7.86 4.89-0.78 2.43-0.67 4.84 0.07 7.22 1.63 5.2 4.8 9.34 9.06 12.67 2.5 1.95 4.84 2.02 7.53 0.32 1.36-0.86 2.66-1.85 3.94-2.84z"/>
	</g>
</svg>