<svg version="1.2" xmlns="http://www.w3.org/2000/svg" viewBox="0 0 494 199" width="1235" height="498">
	<style>
		.s0 { fill: #ff6b58 } 
		.s1 { fill: #324b9f } 
	</style>
	<g id="Capa 1">
		<g id="&lt;Group&gt;">
			<path id="&lt;Path&gt;" class="s0" d="m99.27 92.95c0 6.76 1.66 11.61 9.19 11.61 9.69 0 11.1-5.36 11.1-13.78 0-6.12-1.41-12.63-1.41-19.14 0-7.02 1.28-13.52 9.06-13.52 6.89 0 8.68 7.65 8.68 13.27 0 6.76-1.66 16.33-1.66 20.79 0 7.79 2.04 12.38 10.59 12.38 6.51 0 10.59-2.81 10.59-10.59 0-7.91-2.68-16.2-2.68-24.5 0-5.87 3.57-10.71 9.7-10.71 8.04 0 8.8 6.5 8.8 13.65 0 7.4-1.02 20.92-1.02 23.86 0 5.87 4.08 8.42 9.7 8.42 5.87 0 10.59-3.19 10.59-9.32 0-3.7-1.41-3.82-1.41-15.31 0-3.7 0.13-10.46 0.13-14.03 0-13.14-4.08-26.41-20.03-26.41-8.04 0-13.14 2.55-19.27 9.31-2.93-6.63-8.16-9.82-15.18-9.82-6.51 0-13.01 3.7-16.08 9.31-0.89-6.12-3.82-9.44-10.08-9.44-7.14 0-10.07 4.08-10.07 10.84 0 6.51 2.16 10.72 2.16 22.46 0 6.89-1.4 13.78-1.4 20.67z"/>
			<path id="&lt;Path&gt;" class="s0" d="m207.37 39.28c5.91-0.98 7.26-9.22 6.45-14.13-0.98-5.92-4.52-10.12-10.94-9.05-9.95 1.65-13.1 5.27-11.36 15.72 1.33 8.06 9.3 8.54 15.85 7.46z"/>
			<path id="&lt;Path&gt;" class="s0" d="m205.14 46.89c-5.92 0.98-9.17 3.2-8.02 10.13 0.6 3.65 1.69 7.86 2.3 11.51 1.31 7.93 1.77 16.14 3.08 24.07 1.32 7.93 4.08 10.57 12.27 9.21 7.93-1.31 9.71-7.69 8.55-14.74-0.8-4.78-3.29-8.12-4.19-13.53-1-6.04-1.63-12.14-3.02-20.58-0.99-5.91-5.43-6.99-10.97-6.07z"/>
			<path id="&lt;Path&gt;" class="s0" d="m252.15 101.41c15.72 2.72 28.98-1.15 31.58-17.79 1.93-12.35-6.75-17.97-17.27-20.91-3.7-1.09-14.09-4.01-13.34-8.8 0.53-3.4 3.6-4.08 6.88-3.57 7.19 1.12 10.86 7.38 16.28 8.23 4.79 0.74 8.55-2.67 9.32-7.59 1.54-9.83-11.31-14.42-20.13-15.8-13.24-2.07-26.56 1.4-28.85 16.03-1.83 11.72 5.86 18.73 15.88 22.37 3.89 1.51 14.54 2.78 13.64 8.58-0.69 4.41-5.41 4.84-9.19 4.25-10.97-1.71-11.52-10.58-17.19-11.47-5.55-0.87-8.43 2.69-9.24 7.86-1.71 10.96 12.32 17.03 21.63 18.61z"/>
			<path id="&lt;Path&gt;" class="s0" d="m314.37 98.66c0-5.1-1.54-10.46-1.54-16.33 0-8.42 0.13-19.52 11.49-19.52 6.76 0 10.97 4.72 10.97 11.1 0 10.59-1.28 14.8-1.28 23.35 0 6.76 3.07 12.89 10.34 12.89 8.42 0 10.21-7.15 10.21-14.42 0-4.34-1.28-7.27-1.28-23.1 0-14.41-4.98-28.19-20.92-28.19-7.15 0-12.51 1.15-17.36 5.36l-1.27 1.14c0-5.35 0.76-17.48 0.76-18.75 0-7.4-3.31-12.25-10.84-12.25-7.53 0-10.59 4.08-10.59 13.4 0 10.2 2.29 14.03 2.29 28.58 0 11.86-2.04 24.37-2.04 34.32 0 7.91 2.17 13.78 10.98 13.78 7.4 0 10.08-6.38 10.08-11.36z"/>
			<path id="&lt;Path&gt;" class="s0" d="m369.86 102.1c8.02 0.65 11.3-5.1 11.87-12.22 0.39-4.83-1.22-8.68-0.78-14.14 0.5-6.11 1.37-12.18 2.06-20.7 0.48-5.98-3.57-8.1-9.17-8.55-5.97-0.48-9.67 0.88-10.23 7.88-0.3 3.68-0.27 8.04-0.57 11.73-0.64 8.01-2.19 16.08-2.84 24.09-0.65 8.01 1.4 11.25 9.66 11.91z"/>
			<path id="&lt;Path&gt;" class="s0" d="m377.85 39.64c5.98 0.49 9.29-7.18 9.69-12.14 0.48-5.98-1.93-10.91-8.42-11.43-10.05-0.82-13.98 1.94-14.83 12.49-0.66 8.14 6.95 10.55 13.56 11.08z"/>
			<path id="&lt;Compound Path&gt;" fill-rule="evenodd" class="s1" d="m294.42 146.39c0 17.99-10.59 33.81-30.87 33.81-19.65 0-31.65-12.5-31.65-32.28 0-19.52 9.44-34.45 31.26-34.45 19.65 0 31.26 11.99 31.26 32.92zm-17.99 0.76c0-8.93-3.57-17.48-13.91-17.48-9.44 0-12.88 9.32-12.88 17.87 0 8.03 4.34 15.82 13.14 15.82 8.8 0 13.65-7.79 13.65-16.21z"/>
			<path id="&lt;Compound Path&gt;" fill-rule="evenodd" class="s1" d="m364.94 152.79c0 19.01-12.89 32.66-32.28 32.66-19.91 0-30.88-12.76-30.88-31.38 0-22.46 11.48-35.09 32.54-35.09 20.03 0 30.62 15.05 30.62 33.81zm-18.37 0.77c0-8.3-2.94-17.99-13.02-17.99-7.78 0-13.4 8.29-13.4 15.31 0 8.03 3.58 17.73 13.4 17.73 8.93 0 13.02-7.4 13.02-15.05z"/>
			<path id="&lt;Path&gt;" class="s1" d="m409.42 128.09c-3.18 0.3-5.67 1.05-8.72 1.33-2.29 0.21-2.8-1.15-3.14-4.83-0.37-3.94 0.07-8.85 5.15-9.32 2.16-0.21 3.96 1.29 6.12 1.09 4.7-0.44 8.22-5.26 7.81-9.7-0.84-9.02-11.72-10.18-18.7-9.53-12.96 1.21-18.97 9.59-17.79 22.17 0.21 2.28 0.69 4.67 0.9 6.96 0.82 8.77-4.17 4.75-8.62 7.85-2.4 1.77-3.34 4.03-3.05 7.08 0.68 7.24 4.72 8.02 8.31 8.07 3.23 0.21 5.85-0.55 6.14 2.63 0.82 8.76-0.39 13.62 0.68 25.05 0.69 7.37 3.87 12.58 12 11.82 9.02-0.84 9.28-7.66 8.6-14.9-0.8-8.51-3.31-16.22-4.05-24.1-0.19-2.03 0.25-2.84 1.52-2.96 2.16-0.2 5 0.05 7.04-0.14 6.98-0.66 11.46-4.79 10.85-11.4-0.63-6.73-5.21-7.71-11.05-7.17z"/>
			<path id="&lt;Compound Path&gt;" fill-rule="evenodd" class="s1" d="m226.37 140.23c0.82 3.95 1.2 7.99 1.07 12.02q-0.08 2.37-0.39 4.72c-1.94 14.83-14.34 23.98-31.89 24.86-11.81 0.59-22.76-2.48-32.96-8.15-3.17-1.76-5.24-1.53-8.12 0.53-8.79 6.31-18.51 10.51-29.44 11.48-20.75 1.84-45.82-17.1-37.25-46.94 2.44-8.46 6.57-16.45 10.14-24.55 1.52-3.45 4.57-4.71 8.05-3.11 3.79 1.75 4.21 4.95 2.68 8.59-3.12 7.43-6.81 14.68-9.2 22.33-6.25 19.95 11.16 34.83 28.56 30.89 6.77-1.54 13.12-4.95 20.36-7.78-4.03-4.73-7.67-8.03-10.06-12.07-2.48-4.19-4.52-8.96-5.36-13.72-1.08-6.06 2.14-10.77 8.1-12.7 3.07-1 6.45-0.71 9.58-0.12 1.47 0.27 2.84 0.56 4.26 1.07 1.36 0.49 2.74 1.02 4.19 1.1 1.3 0.07 2.59-0.22 3.87-0.43 4.29-0.69 9.36-0.81 13.29 1.31 5.68 3.06 7.39 8.82 4.06 15.55-3.11 6.29-7.35 12.02-11.36 18.43 10.04 5.31 20.75 7.66 32.12 5.14 11.05-2.45 15.47-8.72 14.58-19.92-0.89-11.05-5.51-20.8-10.73-30.34-0.69-1.27-1.62-2.46-2.1-3.81-0.53-1.45-0.77-3.13-0.25-4.62 0.53-1.55 1.82-2.46 3.37-2.84 0.93-0.22 1.88-0.41 2.85-0.41 1.14 0.01 2.32 0.31 3.19 1.06 0.74 0.65 1.19 1.55 1.66 2.42 1.43 2.62 3 5.15 4.41 7.78 1.91 3.54 3.69 7.15 5.2 10.88 1.49 3.67 2.71 7.46 3.52 11.35zm-62.12 14.53c2.56-1.99 4.87-4.22 6.5-7.08 1.36-2.4 2.05-4.93 1.39-7.7-0.99-4.2-5.58-6.7-9.64-5.21-1.64 0.6-2.95 1.59-3.7 3.24-0.2 0.45-0.51 0.85-0.77 1.28q-0.08-0.01-0.17-0.02-0.36-0.97-0.74-1.92c-1.05-2.56-2.88-4.27-5.61-4.85-3.36-0.71-6.76 1.49-7.86 4.89-0.78 2.43-0.67 4.84 0.07 7.22 1.63 5.2 4.8 9.34 9.06 12.67 2.5 1.95 4.84 2.02 7.53 0.32 1.36-0.86 2.66-1.85 3.94-2.84z"/>
			<path id="&lt;Path&gt;" class="s1" d="m466.11 83.13c-2.32-7.15-7.78-12.56-14.4-15.89-12.52-6.31-28.85-6.53-41.62-0.75-9.59 4.34-17.56 12.84-19.84 23.12 18.57-1.43 35.5 1.4 53.31 6.53 5.81 1.68 14.8 4.87 20.08 0.57 3.8-3.09 3.99-8.92 2.47-13.58z"/>
			<path id="&lt;Path&gt;" class="s1" d="m92.36 84.84c-0.24-0.55-0.83-1.14-1.41-1.5-8.57-5.25-17.87-7.12-27.73-5.01-8.92 1.91-17.22 6.61-23.64 13.07-7.4 7.43-12.7 17.65-12.58 28.32 0.1 7.64 5.9 19.65 15.36 16.15 6-2.22 9.48-8.7 11.7-14.29 1.89-4.77 3.29-9.77 5.83-14.22 4.09-7.19 10.97-12.77 18.28-16.46 1.17-0.59 13.72-7.08 14.19-6.06z"/>
		</g>
	</g>
</svg>